<svg xmlns="http://www.w3.org/2000/svg" viewBox="0 0 200 200" width="200" height="200">
  <!-- Edificio principal -->
  <rect x="50" y="60" width="100" height="120" fill="#1565C0" rx="5"/>
  
  <!-- Ventanas -->
  <rect x="60" y="70" width="15" height="15" fill="#FFC107" rx="2"/>
  <rect x="80" y="70" width="15" height="15" fill="#FFC107" rx="2"/>
  <rect x="100" y="70" width="15" height="15" fill="#FFC107" rx="2"/>
  <rect x="120" y="70" width="15" height="15" fill="#FFC107" rx="2"/>
  
  <rect x="60" y="90" width="15" height="15" fill="#FFC107" rx="2"/>
  <rect x="80" y="90" width="15" height="15" fill="#FFC107" rx="2"/>
  <rect x="100" y="90" width="15" height="15" fill="#FFC107" rx="2"/>
  <rect x="120" y="90" width="15" height="15" fill="#FFC107" rx="2"/>
  
  <rect x="60" y="110" width="15" height="15" fill="#FFC107" rx="2"/>
  <rect x="80" y="110" width="15" height="15" fill="#FFC107" rx="2"/>
  <rect x="100" y="110" width="15" height="15" fill="#FFC107" rx="2"/>
  <rect x="120" y="110" width="15" height="15" fill="#FFC107" rx="2"/>
  
  <rect x="60" y="130" width="15" height="15" fill="#FFC107" rx="2"/>
  <rect x="80" y="130" width="15" height="15" fill="#FFC107" rx="2"/>
  <rect x="100" y="130" width="15" height="15" fill="#FFC107" rx="2"/>
  <rect x="120" y="130" width="15" height="15" fill="#FFC107" rx="2"/>
  
  <!-- Entrada -->
  <rect x="85" y="150" width="30" height="30" fill="#0D47A1" rx="3"/>
  <rect x="90" y="155" width="20" height="20" fill="#FFC107" rx="2"/>
  
  <!-- Techo -->
  <polygon points="45,60 100,40 155,60" fill="#0D47A1"/>
  
  <!-- Símbolo de inteligencia (chip) -->
  <circle cx="100" cy="25" r="15" fill="#2E7D32"/>
  <rect x="95" y="20" width="10" height="10" fill="#FFF" rx="1"/>
  <circle cx="100" cy="25" r="3" fill="#2E7D32"/>
  
  <!-- Texto -->
  <text x="100" y="200" text-anchor="middle" font-family="Arial, sans-serif" font-size="12" font-weight="bold" fill="#1565C0">Smart Condominium</text>
</svg>